<svg xmlns="http://www.w3.org/2000/svg" width="100%" viewBox="0 0 121 26" fill="none" ><g clip-path="url(#clip0_32_55073)"><path d="M14.4149 14.9252V20.0382C14.4149 20.3086 14.1949 20.5286 13.9246 20.5286H0.490376C0.219982 20.5286 0 20.3086 0 20.0382V6.60097C0 6.33058 0.219982 6.1106 0.490376 6.1106H5.60037V14.4363C5.60037 14.7067 5.82036 14.9267 6.09075 14.9267H14.4165L14.4149 14.9252Z" fill="#4C00FF"></path><path d="M20.0176 7.71546C20.0176 12.0189 17.5107 14.9168 14.4142 14.926V9.50892C14.4142 9.3531 14.3515 9.20339 14.2415 9.0934L11.4322 6.28405C11.3222 6.17406 11.1725 6.11142 11.0167 6.11142H5.59961V0.999898C5.59961 0.729503 5.81959 0.509521 6.08999 0.509521H13.6702C17.2602 0.509521 20.0176 3.40442 20.0176 7.71546Z" fill="#FF5252"></path><path d="M14.2431 9.0941C14.3531 9.20409 14.4157 9.3538 14.4157 9.50962V14.9267H6.08999C5.81959 14.9267 5.59961 14.7067 5.59961 14.4363V6.1106H11.0167C11.1725 6.1106 11.3222 6.17323 11.4322 6.28322L14.2431 9.0941Z" fill="#FFFFFF"></path><g data-change="color" fill="#FFFFFF"><path d="M52.291 13.5184C52.291 9.68249 54.9155 6.7998 58.4184 6.7998C61.1988 6.7998 63.2321 8.1915 64.1823 10.816L61.5318 11.8197C60.8123 10.1988 59.859 9.50375 58.4169 9.50375C56.6158 9.50375 55.2776 11.2025 55.2776 13.5199C55.2776 15.8374 56.6143 17.5361 58.4169 17.5361C59.859 17.5361 60.8092 16.8395 61.5318 15.2202L64.1823 16.2239C63.2321 18.8484 61.1988 20.2401 58.4184 20.2401C54.9201 20.2401 52.291 17.3574 52.291 13.5215V13.5138V13.5169V13.5184Z"></path><path d="M88.6408 16.1465C88.6408 18.5938 86.58 20.2406 83.569 20.2406C81.2012 20.2406 79.0961 19.3164 77.8297 18.0057L77.8327 18.0026H77.8281L78.8104 15.6638C79.7591 16.5208 81.2913 17.7475 83.4697 17.7475C84.9898 17.7475 85.8636 17.0784 85.8636 16.2275C85.8636 15.2483 84.6522 14.9901 83.2116 14.706C81.1523 14.2706 78.4254 13.574 78.4254 10.7677C78.4254 8.42424 80.3304 6.80493 83.1352 6.80493C85.2953 6.80493 87.1514 7.62834 88.4346 8.70991L86.965 10.7692C85.7291 9.79149 84.4184 9.30112 83.1291 9.30112C81.8397 9.30112 81.2012 9.84343 81.2012 10.6149C81.2012 11.6965 82.5929 11.9806 83.6225 12.1853C86.1966 12.6986 88.6408 13.4731 88.6408 16.1465Z"></path><path d="M104.756 7.06311L104.658 8.53729C104.652 8.632 104.539 8.67936 104.468 8.61673C104.109 8.27148 102.77 6.80493 100.507 6.80493C97.2641 6.80493 94.8718 9.60817 94.8702 13.4136H94.8672C94.8672 17.2724 97.235 20.0787 100.506 20.0787C102.686 20.0787 104.024 18.6656 104.268 18.3494C104.339 18.2639 104.475 18.3143 104.472 18.4243C104.444 18.8184 104.384 19.8037 104.059 20.6409C103.648 21.6995 102.716 22.6803 100.84 22.6803C99.2974 22.6803 97.9347 22.0891 96.6454 20.8288L95.1024 22.966C96.517 24.5639 98.7551 25.4652 101.176 25.4652C105.087 25.4652 107.431 22.7872 107.431 18.412V7.06311H104.756ZM101.153 17.3809C99.2241 17.3809 97.8583 15.7096 97.8583 13.4181C97.8583 11.1267 99.2241 9.50429 101.153 9.50429C103.083 9.50429 104.447 11.1251 104.447 13.4181C104.447 15.7111 103.081 17.3809 101.153 17.3809Z"></path><path d="M120.855 11.8441V19.9773H117.871V12.3849C117.871 10.5334 117.074 9.50222 115.528 9.50222C113.982 9.50222 112.954 10.5838 112.67 12.4093C112.592 12.8463 112.567 13.5138 112.567 14.9315V19.9758H109.584V7.05645H112.228C112.234 7.17255 112.299 8.32746 112.303 8.3962C112.308 8.48939 112.416 8.53675 112.49 8.47869C113.589 7.60793 114.796 6.7998 116.48 6.7998C119.231 6.7998 120.855 8.67882 120.855 11.8441Z"></path><path d="M44.9588 6.7998C41.3061 6.7998 38.6816 9.6336 38.6816 13.5184C38.6816 17.4032 41.3046 20.237 44.9588 20.237C48.6129 20.237 51.2389 17.4078 51.2389 13.5184C51.2389 9.62902 48.6114 6.7998 44.9588 6.7998ZM44.9588 17.5346C43.0309 17.5346 41.6651 15.8878 41.6651 13.5184C41.6651 11.149 43.0034 9.50222 44.9588 9.50222C46.9142 9.50222 48.2524 11.1506 48.2524 13.5184C48.2524 15.8863 46.8882 17.5346 44.9588 17.5346Z"></path><path d="M36.3238 1.06018C36.2688 1.06018 36.2138 1.07393 36.1634 1.0999L34.2126 2.12801C34.1744 2.14787 34.1515 2.18759 34.1515 2.23036V8.38527C34.1515 8.48763 34.0323 8.53498 33.956 8.46624C33.6703 8.21418 32.9966 7.58631 32.0601 7.15551C31.5759 6.93248 30.8579 6.8011 30.2132 6.8011C26.9456 6.8011 24.5762 9.63489 24.5762 13.5197C24.5762 17.4045 26.944 20.2337 30.2132 20.2337C31.9333 20.2337 33.2181 19.334 34.0033 18.5319C34.0568 18.4769 34.0858 18.4464 34.1332 18.3945C34.2019 18.3211 34.3257 18.3639 34.3318 18.4647L34.4341 19.9756H37.1365V1.13809C37.1365 1.09532 37.1014 1.06018 37.0586 1.06018H36.3238ZM30.8579 17.5344C28.9025 17.5344 27.5643 15.8876 27.5643 13.5182C27.5643 11.1488 28.93 9.50199 30.8579 9.50199C32.7858 9.50199 34.1515 11.1503 34.1515 13.5182C34.1515 15.886 32.8148 17.5344 30.8579 17.5344Z"></path><path d="M92.1578 7.09941L90.2818 8.08933C90.2436 8.10919 90.2207 8.14891 90.2207 8.19168V19.976H93.2057V7.1376C93.2057 7.09483 93.1706 7.05969 93.1278 7.05969H92.3182C92.2616 7.05969 92.2082 7.07344 92.1578 7.09941Z"></path><path d="M91.7117 4.96377C92.7062 4.96377 93.5113 4.1587 93.5113 3.1642C93.5113 2.1697 92.7062 1.36462 91.7117 1.36462C90.7172 1.36462 89.9121 2.1697 89.9121 3.1642C89.9121 4.1587 90.7172 4.96377 91.7117 4.96377Z"></path><path d="M76.7459 7.05627V14.0743C76.7459 19.3936 73.7654 20.2369 71.1073 20.2369C68.4492 20.2369 65.4688 19.3936 65.4688 14.0743V7.05627H68.4492V15.077C68.4492 15.8362 68.6402 17.536 71.1073 17.536C73.5745 17.536 73.7654 15.8362 73.7654 15.077V7.05627H76.7459Z"></path></g></g></svg>